<svg xmlns="http://www.w3.org/2000/svg" xmlns:xlink="http://www.w3.org/1999/xlink" width="62" zoomAndPan="magnify" viewBox="0 0 46.5 46.5" height="62" preserveAspectRatio="xMidYMid meet" version="1.0"><defs><clipPath id="12fc743c4f"><path d="M 0 0 L 46.003906 0 L 46.003906 46.003906 L 0 46.003906 Z M 0 0 " clip-rule="nonzero"/></clipPath><clipPath id="fd3191c2c8"><path d="M 0 17 L 46 17 L 46 43.652344 L 0 43.652344 Z M 0 17 " clip-rule="nonzero"/></clipPath><clipPath id="fcfdab50ed"><path d="M 7 2.097656 L 33 2.097656 L 33 32 L 7 32 Z M 7 2.097656 " clip-rule="nonzero"/></clipPath></defs><g clip-path="url(#12fc743c4f)"><path fill="#ffffff" d="M 0 0 L 46.003906 0 L 46.003906 46.003906 L 0 46.003906 Z M 0 0 " fill-opacity="1" fill-rule="nonzero"/><path fill="#ffffff" d="M 0 0 L 46.003906 0 L 46.003906 46.003906 L 0 46.003906 Z M 0 0 " fill-opacity="1" fill-rule="nonzero"/></g><g clip-path="url(#fd3191c2c8)"><path fill="#085484" d="M 3.210938 43.4375 C 2.601562 44.046875 1.605469 44.046875 0.996094 43.4375 C 0.382812 42.824219 0.382812 41.832031 0.996094 41.21875 L 16.671875 25.546875 C 17.234375 24.984375 18.132812 24.933594 18.757812 25.429688 L 28.109375 32.914062 L 42.792969 18.234375 C 43.402344 17.621094 44.398438 17.621094 45.007812 18.234375 C 45.621094 18.84375 45.621094 19.835938 45.007812 20.449219 L 29.335938 36.121094 C 28.769531 36.6875 27.871094 36.738281 27.246094 36.238281 L 17.894531 28.753906 Z M 3.210938 43.4375 " fill-opacity="1" fill-rule="evenodd"/></g><path fill="#085484" d="M 37.632812 20.90625 C 36.765625 20.90625 36.0625 20.207031 36.0625 19.339844 C 36.0625 18.476562 36.765625 17.773438 37.632812 17.773438 L 43.902344 17.773438 C 44.765625 17.773438 45.46875 18.476562 45.46875 19.339844 L 45.46875 25.609375 C 45.46875 26.476562 44.765625 27.175781 43.902344 27.175781 C 43.035156 27.175781 42.332031 26.476562 42.332031 25.609375 L 42.332031 20.90625 Z M 37.632812 20.90625 " fill-opacity="1" fill-rule="evenodd"/><g clip-path="url(#fcfdab50ed)"><path fill="#085484" d="M 7.34375 31.917969 L 7.34375 25.5625 C 7.34375 25.394531 7.410156 25.234375 7.527344 25.117188 C 7.644531 25 7.804688 24.933594 7.96875 24.933594 L 11.269531 24.933594 C 11.617188 24.933594 11.898438 25.214844 11.898438 25.5625 L 11.898438 27.363281 Z M 14.175781 25.085938 L 14.175781 14.175781 C 14.175781 14.007812 14.238281 13.851562 14.359375 13.730469 C 14.476562 13.613281 14.636719 13.546875 14.800781 13.546875 L 18.101562 13.546875 C 18.449219 13.546875 18.730469 13.828125 18.730469 14.175781 L 18.730469 23.121094 C 17.5 22.792969 16.144531 23.117188 15.191406 24.070312 Z M 21.007812 24.554688 L 21.007812 2.789062 C 21.007812 2.621094 21.070312 2.460938 21.191406 2.34375 C 21.308594 2.230469 21.464844 2.160156 21.632812 2.160156 L 24.933594 2.160156 C 25.101562 2.160156 25.257812 2.230469 25.375 2.34375 C 25.496094 2.460938 25.5625 2.621094 25.5625 2.789062 L 25.5625 28.195312 C 24.027344 26.972656 22.125 25.449219 21.007812 24.554688 Z M 27.839844 30.019531 L 27.839844 9.621094 C 27.839844 9.273438 28.117188 8.992188 28.464844 8.992188 L 31.765625 8.992188 C 32.113281 8.992188 32.390625 9.273438 32.390625 9.621094 L 32.390625 25.675781 L 27.957031 30.113281 C 27.957031 30.113281 27.914062 30.078125 27.839844 30.019531 Z M 27.839844 30.019531 " fill-opacity="1" fill-rule="evenodd"/></g></svg>