<svg xmlns="http://www.w3.org/2000/svg" xmlns:xlink="http://www.w3.org/1999/xlink" width="62" zoomAndPan="magnify" viewBox="0 0 46.5 46.5" height="62" preserveAspectRatio="xMidYMid meet" version="1.0"><defs><clipPath id="03f58edbcb"><path d="M 0 0 L 46.003906 0 L 46.003906 46.003906 L 0 46.003906 Z M 0 0 " clip-rule="nonzero"/></clipPath><clipPath id="cc1e21758e"><path d="M 0 4.265625 L 45.988281 4.265625 L 45.988281 45.820312 L 0 45.820312 Z M 0 4.265625 " clip-rule="nonzero"/></clipPath></defs><g clip-path="url(#03f58edbcb)"><path fill="#ffffff" d="M 0 0 L 46.003906 0 L 46.003906 46.003906 L 0 46.003906 Z M 0 0 " fill-opacity="1" fill-rule="nonzero"/><path fill="#ffffff" d="M 0 0 L 46.003906 0 L 46.003906 46.003906 L 0 46.003906 Z M 0 0 " fill-opacity="1" fill-rule="nonzero"/></g><g clip-path="url(#cc1e21758e)"><path fill="#085484" d="M 43.367188 32.300781 L 2.632812 32.300781 L 2.632812 6.878906 L 43.367188 6.878906 Z M 27.476562 36.488281 L 18.523438 36.488281 C 18.042969 36.488281 17.652344 36.101562 17.652344 35.625 C 17.652344 35.144531 18.042969 34.757812 18.523438 34.757812 L 27.476562 34.757812 C 27.957031 34.757812 28.34375 35.144531 28.34375 35.625 C 28.34375 36.101562 27.957031 36.488281 27.476562 36.488281 Z M 44.480469 4.277344 L 1.519531 4.277344 C 0.699219 4.277344 0.03125 4.945312 0.03125 5.765625 L 0.03125 37.457031 C 0.03125 38.277344 0.699219 38.945312 1.519531 38.945312 L 21.554688 38.945312 L 21.554688 42.9375 L 19.132812 42.9375 C 19.066406 42.9375 19 42.957031 18.945312 42.996094 L 15.472656 45.425781 C 15.210938 45.609375 15.339844 46.023438 15.664062 46.023438 L 30.335938 46.023438 C 30.65625 46.023438 30.785156 45.609375 30.523438 45.425781 L 27.050781 42.996094 C 26.996094 42.957031 26.929688 42.9375 26.863281 42.9375 L 24.445312 42.9375 L 24.445312 38.945312 L 44.480469 38.945312 C 45.296875 38.945312 45.964844 38.277344 45.964844 37.457031 L 45.964844 5.765625 C 45.964844 4.945312 45.296875 4.277344 44.480469 4.277344 " fill-opacity="1" fill-rule="nonzero"/></g><path fill="#085484" d="M 12.40625 13.488281 C 14.242188 13.488281 15.734375 14.984375 15.734375 16.820312 C 15.734375 18.65625 14.242188 20.148438 12.40625 20.148438 C 10.570312 20.148438 9.078125 18.65625 9.078125 16.820312 C 9.078125 14.984375 10.570312 13.488281 12.40625 13.488281 Z M 7.566406 19.65625 L 6.523438 21.023438 L 8.203125 22.703125 L 9.570312 21.660156 C 10.011719 21.917969 10.488281 22.117188 10.992188 22.25 L 11.21875 23.953125 L 13.59375 23.953125 L 13.824219 22.25 C 14.328125 22.117188 14.804688 21.917969 15.242188 21.660156 L 16.609375 22.703125 L 18.292969 21.023438 L 17.246094 19.65625 C 17.507812 19.214844 17.707031 18.738281 17.839844 18.234375 L 19.539062 18.007812 L 19.539062 15.628906 L 17.839844 15.402344 C 17.707031 14.898438 17.507812 14.421875 17.246094 13.984375 L 18.292969 12.617188 L 16.609375 10.933594 L 15.242188 11.980469 C 14.804688 11.722656 14.328125 11.519531 13.824219 11.386719 L 13.59375 9.6875 L 11.21875 9.6875 L 10.992188 11.386719 C 10.488281 11.519531 10.011719 11.722656 9.570312 11.980469 L 8.203125 10.933594 L 6.523438 12.617188 L 7.566406 13.984375 C 7.308594 14.421875 7.109375 14.898438 6.976562 15.402344 L 5.273438 15.628906 L 5.273438 18.007812 L 6.976562 18.234375 C 7.109375 18.738281 7.308594 19.214844 7.566406 19.65625 " fill-opacity="1" fill-rule="nonzero"/><path fill="#085484" d="M 35.933594 21.511719 L 38.910156 24.488281 L 36.621094 26.777344 L 37.058594 28.152344 L 40.722656 24.488281 L 36.839844 20.605469 L 35.933594 21.511719 " fill-opacity="1" fill-rule="nonzero"/><path fill="#085484" d="M 31.960938 22.195312 L 31.523438 20.820312 L 27.855469 24.488281 L 31.738281 28.371094 L 32.644531 27.460938 L 29.667969 24.488281 L 31.960938 22.195312 " fill-opacity="1" fill-rule="nonzero"/><path fill="#085484" d="M 32.140625 19.507812 L 35.410156 29.796875 L 36.441406 29.464844 L 33.171875 19.179688 L 32.140625 19.507812 " fill-opacity="1" fill-rule="nonzero"/><path fill="#085484" d="M 40.722656 9.074219 L 21.433594 9.074219 L 21.433594 10.605469 L 40.722656 10.605469 L 40.722656 9.074219 " fill-opacity="1" fill-rule="nonzero"/><path fill="#085484" d="M 24.566406 25.609375 L 5.273438 25.609375 L 5.273438 27.140625 L 24.566406 27.140625 L 24.566406 25.609375 " fill-opacity="1" fill-rule="nonzero"/><path fill="#085484" d="M 13.234375 29.898438 L 24.566406 29.898438 L 24.566406 28.367188 L 13.234375 28.367188 L 13.234375 29.898438 " fill-opacity="1" fill-rule="nonzero"/><path fill="#085484" d="M 26.023438 13.667969 L 40.722656 13.667969 L 40.722656 12.136719 L 26.023438 12.136719 L 26.023438 13.667969 " fill-opacity="1" fill-rule="nonzero"/><path fill="#085484" d="M 28.167969 16.730469 L 40.722656 16.730469 L 40.722656 15.199219 L 28.167969 15.199219 L 28.167969 16.730469 " fill-opacity="1" fill-rule="nonzero"/></svg>