<svg xmlns="http://www.w3.org/2000/svg" xmlns:xlink="http://www.w3.org/1999/xlink" width="62" zoomAndPan="magnify" viewBox="0 0 46.5 46.5" height="62" preserveAspectRatio="xMidYMid meet" version="1.0"><defs><clipPath id="3006971bb8"><path d="M 0 0 L 46.003906 0 L 46.003906 46.003906 L 0 46.003906 Z M 0 0 " clip-rule="nonzero"/></clipPath><clipPath id="ffef6a1c0d"><path d="M 1.238281 0 L 45 0 L 45 46.003906 L 1.238281 46.003906 Z M 1.238281 0 " clip-rule="nonzero"/></clipPath></defs><g clip-path="url(#3006971bb8)"><path fill="#ffffff" d="M 0 0 L 46.003906 0 L 46.003906 46.003906 L 0 46.003906 Z M 0 0 " fill-opacity="1" fill-rule="nonzero"/><path fill="#ffffff" d="M 0 0 L 46.003906 0 L 46.003906 46.003906 L 0 46.003906 Z M 0 0 " fill-opacity="1" fill-rule="nonzero"/></g><g clip-path="url(#ffef6a1c0d)"><path fill="#085484" d="M 28.632812 6.074219 C 37.578125 6.382812 44.738281 13.730469 44.738281 22.75 C 44.738281 31.769531 37.578125 39.117188 28.632812 39.421875 L 28.632812 41.21875 C 28.632812 43.863281 26.550781 46.003906 23.984375 46.003906 L 5.90625 46.003906 C 3.339844 46.003906 1.257812 43.863281 1.257812 41.21875 L 1.257812 4.785156 C 1.257812 2.140625 3.339844 0 5.90625 0 L 23.984375 0 C 26.550781 0 28.632812 2.140625 28.632812 4.785156 Z M 15.203125 43.347656 C 16.917969 43.347656 18.304688 41.917969 18.304688 40.15625 C 18.304688 38.394531 16.917969 36.96875 15.203125 36.96875 C 13.492188 36.96875 12.105469 38.394531 12.105469 40.15625 C 12.105469 41.917969 13.492188 43.347656 15.203125 43.347656 Z M 28.054688 37.917969 C 36.429688 37.917969 43.21875 31.125 43.21875 22.75 C 43.21875 14.375 36.429688 7.582031 28.054688 7.582031 C 19.679688 7.582031 12.886719 14.375 12.886719 22.75 C 12.886719 31.125 19.679688 37.917969 28.054688 37.917969 Z M 11.300781 4.527344 C 10.886719 4.527344 10.546875 4.867188 10.546875 5.28125 C 10.546875 5.699219 10.886719 6.039062 11.300781 6.039062 L 18.589844 6.039062 C 19.007812 6.039062 19.34375 5.699219 19.34375 5.28125 C 19.34375 4.867188 19.007812 4.527344 18.589844 4.527344 Z M 23.589844 17.1875 L 18.96875 22.960938 L 23.589844 29.050781 L 20.542969 29.050781 L 15.921875 22.992188 L 20.542969 17.1875 Z M 31.367188 17.1875 L 27.824219 29.050781 L 25.238281 29.050781 L 28.78125 17.1875 Z M 32.753906 29.050781 L 37.375 23.28125 L 32.753906 17.1875 L 35.804688 17.1875 L 40.425781 23.25 L 35.804688 29.050781 Z M 32.753906 29.050781 " fill-opacity="1" fill-rule="nonzero"/></g></svg>