<svg xmlns="http://www.w3.org/2000/svg" xmlns:xlink="http://www.w3.org/1999/xlink" width="62" zoomAndPan="magnify" viewBox="0 0 46.5 46.5" height="62" preserveAspectRatio="xMidYMid meet" version="1.0"><defs><clipPath id="a6074321c0"><path d="M 0 0 L 46.003906 0 L 46.003906 46.003906 L 0 46.003906 Z M 0 0 " clip-rule="nonzero"/></clipPath><clipPath id="9f74c86fe8"><path d="M 0 4.027344 L 46 4.027344 L 46 46.003906 L 0 46.003906 Z M 0 4.027344 " clip-rule="nonzero"/></clipPath></defs><g clip-path="url(#a6074321c0)"><path fill="#ffffff" d="M 0 0 L 46.003906 0 L 46.003906 46.003906 L 0 46.003906 Z M 0 0 " fill-opacity="1" fill-rule="nonzero"/><path fill="#ffffff" d="M 0 0 L 46.003906 0 L 46.003906 46.003906 L 0 46.003906 Z M 0 0 " fill-opacity="1" fill-rule="nonzero"/></g><g clip-path="url(#9f74c86fe8)"><path fill="#085484" d="M 43.992188 32.65625 L 1.996094 32.65625 L 1.996094 7.839844 C 1.996094 6.789062 2.851562 5.929688 3.90625 5.929688 L 42.082031 5.929688 C 43.132812 5.929688 43.992188 6.789062 43.992188 7.839844 Z M 20.128906 42.203125 L 25.855469 42.203125 L 25.855469 44.109375 L 20.128906 44.109375 Z M 42.082031 4.023438 L 3.90625 4.023438 C 1.800781 4.023438 0.0859375 5.734375 0.0859375 7.839844 L 0.0859375 38.382812 C 0.0859375 40.492188 1.804688 42.203125 3.90625 42.203125 L 18.21875 42.203125 L 18.21875 44.109375 L 14.402344 44.109375 C 13.875 44.109375 13.449219 44.539062 13.449219 45.066406 C 13.449219 45.589844 13.875 46.019531 14.402344 46.019531 L 31.582031 46.019531 C 32.109375 46.019531 32.539062 45.589844 32.539062 45.066406 C 32.539062 44.539062 32.109375 44.109375 31.582031 44.109375 L 27.765625 44.109375 L 27.765625 42.203125 L 39.898438 42.203125 C 40.433594 42.203125 40.851562 41.769531 40.851562 41.246094 C 40.851562 40.722656 40.433594 40.292969 39.898438 40.292969 L 3.90625 40.292969 C 2.855469 40.292969 1.996094 39.433594 1.996094 38.382812 L 1.996094 34.566406 L 43.992188 34.566406 L 43.992188 37.429688 C 43.992188 37.953125 44.421875 38.382812 44.945312 38.382812 C 45.46875 38.382812 45.902344 37.953125 45.902344 37.429688 L 45.902344 7.839844 C 45.902344 5.734375 44.1875 4.023438 42.082031 4.023438 " fill-opacity="1" fill-rule="nonzero"/></g><path fill="#085484" d="M 39.21875 28.839844 L 6.769531 28.839844 C 6.242188 28.839844 5.8125 29.265625 5.8125 29.792969 C 5.8125 30.320312 6.242188 30.746094 6.769531 30.746094 L 39.21875 30.746094 C 39.746094 30.746094 40.171875 30.320312 40.171875 29.792969 C 40.171875 29.265625 39.746094 28.839844 39.21875 28.839844 " fill-opacity="1" fill-rule="nonzero"/><path fill="#085484" d="M 22.039062 36.476562 C 21.511719 36.476562 21.085938 36.902344 21.085938 37.429688 C 21.085938 37.957031 21.511719 38.382812 22.039062 38.382812 L 23.949219 38.382812 C 24.472656 38.382812 24.902344 37.957031 24.902344 37.429688 C 24.902344 36.902344 24.472656 36.476562 23.949219 36.476562 L 22.039062 36.476562 " fill-opacity="1" fill-rule="nonzero"/><path fill="#085484" d="M 14.769531 23.964844 C 14.90625 24.035156 15.050781 24.066406 15.195312 24.066406 C 15.546875 24.066406 15.882812 23.875 16.050781 23.542969 L 17.121094 21.417969 L 18.1875 23.542969 C 18.425781 24.011719 19 24.203125 19.472656 23.964844 C 19.941406 23.726562 20.128906 23.152344 19.894531 22.683594 L 18.1875 19.296875 L 19.894531 15.90625 C 20.128906 15.433594 19.941406 14.859375 19.472656 14.625 C 18.996094 14.386719 18.425781 14.578125 18.1875 15.046875 L 17.121094 17.171875 L 16.050781 15.046875 C 15.8125 14.578125 15.242188 14.386719 14.769531 14.625 C 14.296875 14.859375 14.105469 15.433594 14.34375 15.90625 L 16.050781 19.296875 L 14.34375 22.683594 C 14.105469 23.152344 14.296875 23.726562 14.769531 23.964844 " fill-opacity="1" fill-rule="nonzero"/><path fill="#085484" d="M 44.332031 40.152344 C 44.027344 39.824219 43.5 39.738281 43.113281 39.988281 C 43.113281 39.996094 43.101562 39.996094 43.101562 39.996094 C 42.890625 40.128906 42.75 40.347656 42.691406 40.589844 C 42.65625 40.785156 42.679688 40.984375 42.753906 41.164062 C 42.777344 41.210938 42.800781 41.257812 42.824219 41.304688 C 43 41.582031 43.304688 41.742188 43.628906 41.742188 C 43.8125 41.742188 43.992188 41.695312 44.144531 41.601562 C 44.59375 41.304688 44.714844 40.714844 44.429688 40.273438 C 44.402344 40.230469 44.367188 40.1875 44.332031 40.152344 " fill-opacity="1" fill-rule="nonzero"/><path fill="#085484" d="M 9.167969 24.066406 C 11.019531 24.066406 12.527344 22.566406 12.527344 20.726562 L 12.527344 15.476562 C 12.527344 14.949219 12.097656 14.519531 11.570312 14.519531 C 11.046875 14.519531 10.617188 14.949219 10.617188 15.476562 L 10.617188 20.726562 C 10.617188 21.515625 9.96875 22.15625 9.167969 22.15625 C 8.371094 22.15625 7.722656 21.515625 7.722656 20.726562 L 7.722656 15.476562 C 7.722656 14.949219 7.292969 14.519531 6.769531 14.519531 C 6.242188 14.519531 5.8125 14.949219 5.8125 15.476562 L 5.8125 20.726562 C 5.8125 22.566406 7.320312 24.066406 9.167969 24.066406 " fill-opacity="1" fill-rule="nonzero"/><path fill="#085484" d="M 39.21875 7.839844 L 6.769531 7.839844 C 6.242188 7.839844 5.8125 8.269531 5.8125 8.796875 C 5.8125 9.324219 6.242188 9.75 6.769531 9.75 L 39.21875 9.75 C 39.746094 9.75 40.171875 9.324219 40.171875 8.796875 C 40.171875 8.269531 39.746094 7.839844 39.21875 7.839844 " fill-opacity="1" fill-rule="nonzero"/><path fill="#085484" d="M 39.21875 14.519531 C 38.691406 14.519531 38.265625 14.949219 38.265625 15.476562 L 38.265625 23.109375 C 38.265625 23.640625 38.691406 24.066406 39.21875 24.066406 C 39.746094 24.066406 40.171875 23.640625 40.171875 23.109375 L 40.171875 15.476562 C 40.171875 14.949219 39.746094 14.519531 39.21875 14.519531 " fill-opacity="1" fill-rule="nonzero"/><path fill="#085484" d="M 30.789062 14.519531 C 30.261719 14.519531 29.835938 14.949219 29.835938 15.476562 L 29.835938 20.726562 C 29.835938 22.566406 31.339844 24.066406 33.191406 24.066406 C 35.042969 24.066406 36.546875 22.566406 36.546875 20.726562 L 36.546875 15.476562 C 36.546875 14.949219 36.121094 14.519531 35.59375 14.519531 C 35.066406 14.519531 34.640625 14.949219 34.640625 15.476562 L 34.640625 20.726562 C 34.640625 21.515625 33.988281 22.15625 33.191406 22.15625 C 32.390625 22.15625 31.742188 21.515625 31.742188 20.726562 L 31.742188 15.476562 C 31.742188 14.949219 31.316406 14.519531 30.789062 14.519531 " fill-opacity="1" fill-rule="nonzero"/><path fill="#085484" d="M 22.882812 26.929688 C 23.277344 26.929688 23.640625 26.6875 23.78125 26.300781 L 28.585938 12.9375 C 28.765625 12.441406 28.507812 11.890625 28.011719 11.714844 C 27.515625 11.535156 26.96875 11.792969 26.789062 12.289062 L 21.988281 25.652344 C 21.808594 26.148438 22.066406 26.695312 22.5625 26.875 C 22.667969 26.910156 22.777344 26.929688 22.882812 26.929688 " fill-opacity="1" fill-rule="nonzero"/></svg>