<svg xmlns="http://www.w3.org/2000/svg" xmlns:xlink="http://www.w3.org/1999/xlink" width="62" zoomAndPan="magnify" viewBox="0 0 46.5 46.5" height="62" preserveAspectRatio="xMidYMid meet" version="1.0"><defs><clipPath id="3fd74c9c9a"><path d="M 0 0 L 46.003906 0 L 46.003906 46.003906 L 0 46.003906 Z M 0 0 " clip-rule="nonzero"/></clipPath><clipPath id="26c34af359"><path d="M 0 7 L 41 7 L 41 42.179688 L 0 42.179688 Z M 0 7 " clip-rule="nonzero"/></clipPath></defs><g clip-path="url(#3fd74c9c9a)"><path fill="#ffffff" d="M 0 0 L 46.003906 0 L 46.003906 46.003906 L 0 46.003906 Z M 0 0 " fill-opacity="1" fill-rule="nonzero"/><path fill="#ffffff" d="M 0 0 L 46.003906 0 L 46.003906 46.003906 L 0 46.003906 Z M 0 0 " fill-opacity="1" fill-rule="nonzero"/></g><path fill="#085484" d="M 20.960938 35.597656 C 21.488281 35.597656 21.910156 35.167969 21.910156 34.648438 C 21.910156 34.125 21.480469 33.695312 20.960938 33.695312 L 19.050781 33.695312 C 18.523438 33.695312 18.101562 34.125 18.101562 34.648438 C 18.101562 35.167969 18.53125 35.597656 19.050781 35.597656 Z M 20.960938 35.597656 " fill-opacity="1" fill-rule="nonzero"/><path fill="#085484" d="M 45.105469 5.472656 C 44.175781 4.199219 42.546875 3.808594 41.140625 4.535156 C 37.332031 6.488281 33.503906 8.992188 30.019531 11.785156 L 4.765625 11.785156 C 4.234375 11.785156 3.816406 12.214844 3.816406 12.738281 L 3.816406 31.789062 C 3.816406 32.316406 4.242188 32.738281 4.765625 32.738281 L 35.246094 32.738281 C 35.777344 32.738281 36.195312 32.3125 36.195312 31.789062 L 36.195312 16.671875 C 39.28125 14.5 42.21875 12.074219 44.777344 9.53125 C 45.898438 8.414062 46.035156 6.742188 45.105469 5.472656 Z M 34.289062 30.832031 L 5.714844 30.832031 L 5.714844 13.6875 L 27.730469 13.6875 C 26.609375 14.664062 25.558594 15.671875 24.554688 16.695312 C 23.394531 15.960938 22.339844 16.367188 21.816406 16.746094 C 21.296875 17.125 20.960938 17.671875 20.859375 18.308594 C 20.859375 18.316406 20.859375 18.332031 20.859375 18.335938 C 19.839844 18.324219 18.824219 18.625 17.980469 19.238281 C 16.550781 20.273438 16.453125 21.574219 16.359375 22.71875 C 16.25 24.058594 16.144531 25.332031 14.015625 26.882812 C 13.703125 27.109375 13.558594 27.496094 13.652344 27.875 C 13.746094 28.246094 14.050781 28.53125 14.429688 28.597656 C 14.53125 28.609375 15.542969 28.769531 16.945312 28.769531 C 18.917969 28.769531 21.652344 28.460938 23.636719 27.015625 C 24.480469 26.402344 25.082031 25.53125 25.386719 24.554688 C 25.394531 24.554688 25.402344 24.558594 25.417969 24.558594 C 26.066406 24.679688 26.789062 24.429688 27.203125 24.132812 C 27.726562 23.753906 28.417969 22.867188 28.097656 21.546875 C 30.175781 20.503906 32.261719 19.308594 34.3125 17.964844 L 34.3125 30.832031 Z M 25.394531 22.496094 C 25.394531 22.496094 25.394531 22.488281 25.386719 22.488281 C 25.382812 22.480469 22.832031 18.964844 22.824219 18.964844 C 22.632812 18.625 22.832031 18.375 22.9375 18.296875 C 23.023438 18.230469 23.332031 18.085938 23.625 18.402344 L 26.167969 21.910156 C 26.324219 22.132812 26.28125 22.4375 26.058594 22.59375 C 25.851562 22.746094 25.558594 22.703125 25.394531 22.496094 Z M 21.445312 20.308594 L 22.566406 21.84375 L 23.6875 23.386719 C 23.617188 24.21875 23.1875 24.980469 22.507812 25.472656 C 20.902344 26.640625 18.558594 26.847656 16.832031 26.859375 C 18.050781 25.367188 18.167969 23.972656 18.253906 22.875 C 18.335938 21.789062 18.410156 21.28125 19.09375 20.78125 C 19.773438 20.289062 20.632812 20.125 21.445312 20.308594 Z M 43.433594 8.179688 C 38.796875 12.792969 32.882812 17.039062 27.097656 19.921875 L 25.796875 18.136719 C 30.324219 13.523438 36.191406 9.207031 42.011719 6.230469 C 42.703125 5.878906 43.269531 6.1875 43.570312 6.59375 C 43.863281 7 43.984375 7.628906 43.433594 8.179688 Z M 43.433594 8.179688 " fill-opacity="1" fill-rule="nonzero"/><g clip-path="url(#26c34af359)"><path fill="#085484" d="M 39.054688 16.1875 C 38.527344 16.1875 38.105469 16.617188 38.105469 17.136719 L 38.105469 35.589844 C 38.105469 36.117188 37.675781 36.539062 37.152344 36.539062 L 2.859375 36.539062 C 2.328125 36.539062 1.90625 36.109375 1.90625 35.589844 L 1.90625 10.828125 C 1.90625 10.300781 2.335938 9.878906 2.859375 9.878906 L 30.796875 9.878906 C 31.324219 9.878906 31.746094 9.449219 31.746094 8.929688 C 31.746094 8.402344 31.316406 7.980469 30.796875 7.980469 L 2.859375 7.980469 C 1.277344 7.980469 0 9.257812 0 10.835938 L 0 35.605469 C 0 37.183594 1.277344 38.460938 2.859375 38.460938 L 12.378906 38.460938 L 12.378906 40.363281 L 9.523438 40.363281 C 9 40.363281 8.574219 40.785156 8.574219 41.3125 C 8.574219 41.839844 9 42.261719 9.523438 42.261719 L 30.476562 42.261719 C 31.003906 42.261719 31.425781 41.832031 31.425781 41.3125 C 31.425781 40.785156 30.996094 40.363281 30.476562 40.363281 L 27.617188 40.363281 L 27.617188 38.453125 L 37.148438 38.453125 C 38.726562 38.453125 40.003906 37.175781 40.003906 35.597656 L 40.003906 17.144531 C 40.003906 16.617188 39.582031 16.1875 39.054688 16.1875 Z M 25.71875 40.363281 L 14.289062 40.363281 L 14.289062 38.453125 L 25.71875 38.453125 Z M 25.71875 40.363281 " fill-opacity="1" fill-rule="nonzero"/></g></svg>