<svg xmlns="http://www.w3.org/2000/svg" xmlns:xlink="http://www.w3.org/1999/xlink" width="62" zoomAndPan="magnify" viewBox="0 0 46.5 46.5" height="62" preserveAspectRatio="xMidYMid meet" version="1.0"><defs><clipPath id="0efd524155"><path d="M 0 0 L 46.003906 0 L 46.003906 46.003906 L 0 46.003906 Z M 0 0 " clip-rule="nonzero"/></clipPath><clipPath id="924260b2c1"><path d="M 0 1.324219 L 46.003906 1.324219 L 46.003906 46.003906 L 0 46.003906 Z M 0 1.324219 " clip-rule="nonzero"/></clipPath></defs><g clip-path="url(#0efd524155)"><path fill="#ffffff" d="M 0 0 L 46.003906 0 L 46.003906 46.003906 L 0 46.003906 Z M 0 0 " fill-opacity="1" fill-rule="nonzero"/><path fill="#ffffff" d="M 0 0 L 46.003906 0 L 46.003906 46.003906 L 0 46.003906 Z M 0 0 " fill-opacity="1" fill-rule="nonzero"/></g><g clip-path="url(#924260b2c1)"><path fill="#085484" d="M 23.003906 1.335938 C 10.320312 1.335938 0 11.609375 0 24.234375 C 0 36.859375 10.320312 47.132812 23.003906 47.132812 C 35.6875 47.132812 46.003906 36.859375 46.003906 24.234375 C 46.003906 11.609375 35.6875 1.335938 23.003906 1.335938 M 23.003906 4.199219 C 27.066406 4.199219 30.84375 5.414062 34.007812 7.484375 C 32.90625 8.09375 31.886719 9.375 31.886719 12.097656 C 31.886719 13.546875 32.878906 15.226562 34.027344 17.171875 C 35.402344 19.511719 37.113281 22.414062 36.683594 24.511719 C 36.210938 25.902344 35.015625 29.050781 33.71875 32.414062 L 27.777344 15.414062 C 27.894531 15.382812 28.03125 15.363281 28.144531 15.324219 C 28.898438 15.078125 29.304688 14.265625 29.054688 13.515625 C 28.800781 12.765625 27.992188 12.367188 27.234375 12.613281 C 26.011719 13.019531 23.792969 13.011719 22.460938 13.007812 L 21.664062 13.007812 C 20.339844 13.011719 18.113281 13.019531 16.890625 12.613281 C 16.144531 12.359375 15.328125 12.765625 15.074219 13.515625 C 14.824219 14.265625 15.230469 15.078125 15.984375 15.324219 C 16.589844 15.527344 17.304688 15.636719 18.039062 15.71875 L 21.574219 24.871094 L 18.230469 33.269531 L 12.515625 15.476562 C 12.726562 15.429688 12.949219 15.390625 13.144531 15.324219 C 13.894531 15.078125 14.304688 14.265625 14.050781 13.515625 C 13.796875 12.765625 12.988281 12.359375 12.234375 12.613281 C 11.011719 13.019531 8.789062 13.007812 7.457031 13.007812 L 7.066406 13.007812 C 6.804688 13.007812 6.59375 12.988281 6.375 12.96875 C 10 7.679688 16.097656 4.199219 23.003906 4.199219 M 2.875 24.234375 C 2.875 21.984375 3.265625 19.828125 3.957031 17.804688 L 12.777344 41.460938 C 6.863281 37.96875 2.875 31.566406 2.875 24.234375 M 17.277344 43.433594 L 23.097656 28.816406 L 28.746094 43.429688 C 26.925781 43.96875 25 44.269531 23.003906 44.269531 C 21.011719 44.269531 19.09375 43.96875 17.277344 43.433594 M 33.292969 41.417969 C 35.15625 36.664062 38.367188 28.429688 39.328125 25.644531 L 39.367188 25.65625 C 39.40625 25.542969 39.449219 25.394531 39.476562 25.21875 C 39.804688 24.320312 40.078125 23.5 40.300781 22.808594 C 41.011719 20.570312 41.460938 18.605469 41.699219 16.863281 C 42.613281 19.148438 43.128906 21.628906 43.128906 24.234375 C 43.128906 31.535156 39.171875 37.917969 33.292969 41.417969 " fill-opacity="1" fill-rule="nonzero"/></g></svg>